<!-- Generated by IcoMoon.io -->
<svg version="1.1" xmlns="http://www.w3.org/2000/svg" width="32" height="32" viewBox="0 0 32 32">
<title>logout</title>
<path d="M20.191 27.701h-16.44v-23.402h16.441c0.364 0 0.66-0.296 0.66-0.66v-2.431c0-0.364-0.296-0.66-0.66-0.66h-19.531c-0.364 0-0.66 0.296-0.66 0.66v29.584c0 0.364 0.296 0.66 0.66 0.66h19.531c0.365 0 0.66-0.296 0.66-0.66v-2.43c0-0.365-0.295-0.66-0.66-0.66z"></path>
<path d="M31.806 15.533l-8.887-8.886c-0.248-0.248-0.686-0.248-0.933 0l-2.108 2.109c-0.258 0.258-0.258 0.676 0 0.934l4.014 4.015h-17.376c-0.364 0-0.66 0.296-0.66 0.66v3.272c0 0.364 0.296 0.66 0.66 0.66h17.377l-4.014 4.015c-0.258 0.258-0.258 0.676 0 0.933l2.108 2.109c0.124 0.124 0.292 0.193 0.467 0.193s0.343-0.070 0.467-0.193l8.887-8.886c0.124-0.124 0.193-0.292 0.193-0.467s-0.071-0.343-0.194-0.467z"></path>
</svg>
